<svg width="1400" height="200" viewBox="0 0 1400 200" fill="none" xmlns="http://www.w3.org/2000/svg">
<path d="M30.0001 60C46.5685 60 60 46.5686 60 30.0002C60 13.4317 73.4314 0.000350148 89.9998 0.000345774L1348.8 1.35142e-05C1366.72 8.7838e-06 1375.68 6.4186e-06 1382.53 3.4878C1388.55 6.55574 1393.44 11.4511 1396.51 17.4723C1400 24.3175 1400 33.2783 1400 51.2V148.8C1400 166.722 1400 175.683 1396.51 182.528C1393.44 188.549 1388.55 193.444 1382.53 196.512C1375.68 200 1366.72 200 1348.8 200H951.272C937.867 200 927 189.133 927 175.728C927 162.323 916.133 151.456 902.728 151.456H497.272C483.867 151.456 473 162.323 473 175.728C473 189.133 462.133 200 448.728 200H51.2C33.2783 200 24.3175 200 17.4723 196.512C11.4511 193.444 6.55574 188.549 3.48779 182.528C0 175.683 0 166.722 0 148.8V90C0 73.4315 13.4315 60 30.0001 60Z" fill="#C1D1F7"/>
</svg>
