<svg width="375" height="232" viewBox="0 0 375 232" fill="none" xmlns="http://www.w3.org/2000/svg">
<path d="M190.486 6.58221C234.721 7.06883 278.071 16.931 322.121 21.1808C366.355 25.4144 409.853 17.3365 453.768 10.8969C487.718 39.8021 515.118 94.4493 554.671 104.847C578.533 111.124 585.685 143.257 598.771 167.491C613.81 195.325 636.137 216.185 655.587 238.537H-105C-55.7523 199.878 -6.50454 161.219 42.7432 122.56C67.1336 103.306 90.4673 85.9659 111.073 59.721C120.965 47.1338 129.922 33.2489 142.234 24.6195C157.212 14.1248 174.39 13.2164 190.486 6.58221Z" stroke="#2463EB" stroke-opacity="0.6" stroke-width="0.590196" stroke-miterlimit="10"/>
<path d="M-74.3923 214.514H634.699" stroke="#2463EB" stroke-opacity="0.6" stroke-width="0.590196" stroke-miterlimit="10"/>
<path d="M-47.6675 193.525H616.427" stroke="#2463EB" stroke-opacity="0.6" stroke-width="0.590196" stroke-miterlimit="10"/>
<path d="M-24.1372 175.049C32.5812 175.049 87.346 178.018 143.696 186.177C193.877 193.443 238.861 186.517 288.109 174.157C335.809 162.17 384.159 164.425 432.522 161.911C488.549 158.819 544.673 161.662 600.355 170.41" stroke="#2463EB" stroke-opacity="0.6" stroke-width="0.590196" stroke-miterlimit="10"/>
<path d="M-3.24854 158.667C23.3167 158.667 50.1032 156.769 76.3367 163.241C103.037 169.826 128.669 182.154 155.111 190.151C208.168 206.193 243.666 183.533 291.415 155.147C333.659 130.053 375.62 131.838 420.899 126.387C480.05 119.267 528.401 119.186 586.102 140.759" stroke="#2463EB" stroke-opacity="0.6" stroke-width="0.590196" stroke-miterlimit="10"/>
<path d="M15.4158 144.003C42.8534 144.003 67.7722 145.057 94.3129 155.731C118.138 165.333 141.091 178.699 165.358 186.404C216.474 202.624 251.456 168.383 294.376 137.239C333.474 108.853 373.494 111.838 416.647 105.382C472.677 97.012 519.013 91.9673 573.335 116.314" stroke="#2463EB" stroke-opacity="0.6" stroke-width="0.590196" stroke-miterlimit="10"/>
<path d="M32.188 130.848C81.7183 131.189 126.125 155.568 174.512 164.668C220.172 173.233 255.916 145.885 297.03 124.506C335.022 104.765 372.671 106.306 412.764 101.976C463.831 96.4281 511.358 90.6211 561.884 106.031" stroke="#2463EB" stroke-opacity="0.6" stroke-width="0.590196" stroke-miterlimit="10"/>
<path d="M47.3633 118.926C92.9371 120.548 137.393 134.644 182.856 137.255C223.294 139.575 260.328 125.285 299.451 114.547C335.76 104.652 372.401 106.55 409.275 104.409C456.827 101.667 504.072 97.596 551.538 104.246" stroke="#2463EB" stroke-opacity="0.6" stroke-width="0.590196" stroke-miterlimit="10"/>
<path d="M61.1155 107.945C141.942 109.34 220.851 112.811 301.616 106.322C381.091 100.061 462.58 101.635 542.129 103.711" stroke="#2463EB" stroke-opacity="0.6" stroke-width="0.590196" stroke-miterlimit="10"/>
<path d="M73.6606 98.3431C226.958 98.2445 380.255 98.2445 533.552 98.3431" stroke="#2463EB" stroke-opacity="0.6" stroke-width="0.590196" stroke-miterlimit="10"/>
<path d="M85.1616 88.918C158.591 86.1605 231.983 85.171 305.437 83.8733C378.891 82.5757 452.197 89.3072 525.7 89.3072" stroke="#2463EB" stroke-opacity="0.6" stroke-width="0.590196" stroke-miterlimit="10"/>
<path d="M95.7285 78.326C166.123 70.8807 236.529 68.5936 307.071 65.5441C378.338 62.4622 447.466 81.0672 518.414 80.9699" stroke="#2463EB" stroke-opacity="0.6" stroke-width="0.590196" stroke-miterlimit="10"/>
<path d="M105.485 66.8581C172.918 54.7737 240.719 51.7891 308.656 46.8905C378.62 41.8459 442.588 71.8541 511.828 73.3139" stroke="#2463EB" stroke-opacity="0.6" stroke-width="0.590196" stroke-miterlimit="10"/>
<path d="M114.504 55.244C178.927 39.6722 244.75 36.2821 310.082 30.1669C341.157 27.2634 369.995 27.7338 400.541 37.4175C435.745 48.5936 469.264 63.2408 505.66 66.2416" stroke="#2463EB" stroke-opacity="0.6" stroke-width="0.590196" stroke-miterlimit="10"/>
<path d="M122.872 44.2465C184.407 26.7769 248.682 23.7923 311.409 16.8336C340.468 13.5895 366.911 13.5084 395.209 23.5328C430.449 36.0227 463.367 53.9626 499.946 59.429" stroke="#2463EB" stroke-opacity="0.6" stroke-width="0.590196" stroke-miterlimit="10"/>
<path d="M130.662 34.66C189.481 17.0444 252.466 14.4491 312.65 7.58782C338.92 4.58701 364.257 3.7922 390.06 12.7622C425.521 25.1223 458.071 45.6739 494.662 52.9245" stroke="#2463EB" stroke-opacity="0.6" stroke-width="0.590196" stroke-miterlimit="10"/>
<path d="M137.924 27.3606C194.961 11.8375 255.673 9.79373 313.792 3.56501C377.687 -3.29631 428.163 31.5293 489.661 46.3063" stroke="#2463EB" stroke-opacity="0.6" stroke-width="0.590196" stroke-miterlimit="10"/>
<path d="M144.719 22.235C200.282 9.53423 258.549 8.3177 314.874 3.54884C375.586 -1.52822 426.259 26.0468 485.017 40.1912" stroke="#2463EB" stroke-opacity="0.6" stroke-width="0.590196" stroke-miterlimit="10"/>
<path d="M151.083 18.7799C205.246 9.04754 261.239 9.04755 315.881 5.96563C373.435 2.72151 424.403 22.9973 480.679 34.9357" stroke="#2463EB" stroke-opacity="0.6" stroke-width="0.590196" stroke-miterlimit="10"/>
<path d="M157.067 16.5255C209.903 9.50195 263.771 10.9456 316.803 9.59924C371.42 8.22049 422.597 21.5539 476.539 30.5076" stroke="#2463EB" stroke-opacity="0.6" stroke-width="0.590196" stroke-miterlimit="10"/>
<path d="M162.683 15.0655C266.068 5.8684 369.847 15.3899 472.754 26.8254" stroke="#2463EB" stroke-opacity="0.6" stroke-width="0.590196" stroke-miterlimit="10"/>
<path d="M167.991 14.0436C267.875 8.83676 369.307 18.3745 469.129 23.776" stroke="#2463EB" stroke-opacity="0.6" stroke-width="0.590196" stroke-miterlimit="10"/>
<path d="M172.991 13.1514C270.381 10.9778 368.152 21.132 465.713 21.0022" stroke="#2463EB" stroke-opacity="0.6" stroke-width="0.590196" stroke-miterlimit="10"/>
<path d="M177.722 12.1459C225.397 12.0648 272.556 18.9099 320.096 22.3973C367.636 25.8848 415.138 20.9212 462.482 18.5206" stroke="#2463EB" stroke-opacity="0.6" stroke-width="0.590196" stroke-miterlimit="10"/>
<path d="M182.195 10.7996C228.703 11.2214 274.498 19.283 320.809 23.2733C367.12 27.2636 413.321 20.3211 459.423 16.0713" stroke="#2463EB" stroke-opacity="0.6" stroke-width="0.590196" stroke-miterlimit="10"/>
<path d="M186.447 8.96652C231.824 9.55046 276.316 18.5853 321.485 22.8351C366.653 27.0849 411.551 19.1531 456.523 13.5407" stroke="#2463EB" stroke-opacity="0.6" stroke-width="0.590196" stroke-miterlimit="10"/>
<path d="M372.757 21.797C375.927 16.9308 378.901 12.0646 381.788 6.85782C384.958 31.7565 382.034 72.1945 391.618 91.9998C390.029 99.829 391.258 103.873 395.304 104.133C397.118 104.665 398.964 104.98 400.821 105.074C407.235 122.203 406.338 147.247 408.427 165.593C411.302 190.832 416.402 214.06 421.55 238.586" stroke="#2463EB" stroke-opacity="0.6" stroke-width="0.590196" stroke-miterlimit="10"/>
<path d="M362.632 22.4297C364.785 16.2742 366.62 9.93376 368.125 3.4516C374.268 83.9059 381.997 157.969 392.306 238.537" stroke="#2463EB" stroke-opacity="0.6" stroke-width="0.590196" stroke-miterlimit="10"/>
<path d="M352.495 22.8028C353.314 15.828 353.969 8.82605 354.461 1.79712C356.599 81.0186 359.45 159.38 363.062 238.618" stroke="#2463EB" stroke-opacity="0.6" stroke-width="0.590196" stroke-miterlimit="10"/>
<path d="M342.37 22.5594C341.707 15.6927 341.179 8.81515 340.785 1.92679C339.041 80.905 336.718 159.575 333.806 238.537" stroke="#2463EB" stroke-opacity="0.6" stroke-width="0.590196" stroke-miterlimit="10"/>
<path d="M332.245 21.9918C330.182 15.7871 328.47 9.38958 327.121 2.8515C321.444 82.0081 313.998 159.835 304.549 238.537" stroke="#2463EB" stroke-opacity="0.6" stroke-width="0.590196" stroke-miterlimit="10"/>
<path d="M322.121 21.1806C318.869 15.8838 315.967 10.2291 313.446 4.27869C303.766 83.1733 291.032 161.362 275.293 238.537" stroke="#2463EB" stroke-opacity="0.6" stroke-width="0.590196" stroke-miterlimit="10"/>
<path d="M311.996 20.0127C307.091 16.6304 303.122 11.2881 300.655 4.74911C290.346 51.6429 285.541 99.6073 274.434 146.404C266.963 177.888 254.872 207.474 246.038 238.537" stroke="#2463EB" stroke-opacity="0.6" stroke-width="0.590196" stroke-miterlimit="10"/>
<path d="M301.874 18.699C299.004 18.1654 296.27 16.746 293.894 14.5562C291.518 12.3663 289.566 9.46771 288.198 6.09555C270.995 51.7079 265.958 110.394 253.793 159.429C245.585 192.503 246.359 170.492 236.591 188.075C228.272 203.03 222.78 221.992 216.71 238.537" stroke="#2463EB" stroke-opacity="0.6" stroke-width="0.590196" stroke-miterlimit="10"/>
<path d="M291.749 17.2392C288.616 17.2348 285.517 16.3834 282.643 14.7375C279.769 13.0915 277.181 10.686 275.038 7.66901C253.388 55.8118 247.871 119.299 232.905 171.708C220.876 213.882 228.481 180.451 211.844 188.756C203.882 192.73 191.079 230.589 187.515 238.537" stroke="#2463EB" stroke-opacity="0.6" stroke-width="0.590196" stroke-miterlimit="10"/>
<path d="M281.624 15.6818C278.352 16.5028 274.981 16.3277 271.768 15.1696C268.555 14.0115 265.585 11.9011 263.083 8.9989C253.425 19.6396 247.891 33.5894 246.482 50.8481C238.127 82.673 228.051 113.054 219.954 145.025C216.776 160.435 213.057 175.623 208.797 190.589C204.021 200.635 198.897 201.051 193.426 191.838C185.234 186.02 179.696 189.967 176.813 203.679L158.284 238.537" stroke="#2463EB" stroke-opacity="0.6" stroke-width="0.590196" stroke-miterlimit="10"/>
<path d="M271.499 14.0921C268.137 15.4974 264.577 15.8786 261.087 15.2071C257.597 14.5357 254.267 12.8291 251.348 10.2154C241.092 16.8875 235.047 28.1716 233.212 44.0678C222.153 78.3582 209.375 111.643 200.257 146.874C197.59 164.436 192.087 181.033 184.124 195.536C181.122 196.037 178.074 195.698 175.178 194.541C172.282 193.384 169.603 191.435 167.315 188.821C150.825 190.897 138.808 222.592 129.028 238.504" stroke="#2463EB" stroke-opacity="0.6" stroke-width="0.590196" stroke-miterlimit="10"/>
<path d="M261.362 12.5351C250.722 18.8125 244.32 8.73947 234.797 14.4329C224.488 20.613 220.409 39.3478 215.703 51.9999C203.87 83.5814 191.128 113.362 180.598 145.723C176.125 159.413 172.574 187.41 159.009 190.816C153.479 192.195 146.598 184.766 140.897 186.128C125.771 189.778 109.564 224.522 99.7959 238.537" stroke="#2463EB" stroke-opacity="0.6" stroke-width="0.590196" stroke-miterlimit="10"/>
<path d="M251.238 11.0266C240.83 17.9041 233.04 9.97224 223.075 14.2707C209.67 20.0777 203.981 42.7704 197.825 58.1962C186.188 87.2635 172.169 113.784 160.877 143.176C155.556 157.045 149.941 175.942 138.071 181.165C131.768 183.938 125.464 181.165 119.05 183.436C100.398 190.167 84.2894 220.857 70.5276 238.586" stroke="#2463EB" stroke-opacity="0.6" stroke-width="0.590196" stroke-miterlimit="10"/>
<path d="M241.11 9.66388C228.909 18.1797 217.924 7.83095 205.919 15.8439C196.31 22.3322 189.946 40.7101 184.846 52.1295C171.441 82.1538 155.873 109.907 141.189 138.829C124.773 171.173 115.386 165.95 92.3594 181.7C73.4983 194.563 57.0701 220.191 41.2686 238.472" stroke="#2463EB" stroke-opacity="0.6" stroke-width="0.590196" stroke-miterlimit="10"/>
<path d="M230.986 8.47983C218.698 16.3144 205.981 8.20404 194.234 15.1789C181.062 22.9972 174.378 43.9867 166.883 58.78C153.256 85.6089 137.233 109.81 121.505 134.579C106.588 158.066 89.9268 161.911 70.8569 176.899C49.9683 193.314 30.9721 218.456 12.0127 238.537" stroke="#2463EB" stroke-opacity="0.6" stroke-width="0.590196" stroke-miterlimit="10"/>
<path d="M220.861 7.53897C208.438 12.616 194.406 9.16104 182.684 15.406C169.413 22.5593 162.287 41.0021 154.152 55.2438C138.461 82.8189 121.173 106.582 101.808 129.696C84.7043 150.102 62.7345 161.213 43.9717 178.894C23.3535 198.358 3.15312 218.667 -17.2439 238.537" stroke="#2463EB" stroke-opacity="0.6" stroke-width="0.590196" stroke-miterlimit="10"/>
<path d="M210.785 6.87408C197.858 12.308 183.753 10.1182 171.305 16.4605C155.799 24.4572 145.981 46.5173 135.992 62.5595C120.768 87.0526 101.808 107.815 82.173 126.047C40.2854 164.976 -4.04734 200.305 -46.4387 238.537" stroke="#2463EB" stroke-opacity="0.6" stroke-width="0.590196" stroke-miterlimit="10"/>
<path d="M200.611 6.58221C187.328 12.1621 172.768 11.4484 159.927 18.0664C144.138 26.2578 134.456 44.8629 123.422 60.7104C105.544 86.3714 84.655 104.782 62.4272 123.29C16.3414 161.646 -29.7157 200.062 -75.7441 238.537" stroke="#2463EB" stroke-opacity="0.6" stroke-width="0.590196" stroke-miterlimit="10"/>
</svg>
