<svg width="1400" height="416" viewBox="0 0 1400 416" fill="none" xmlns="http://www.w3.org/2000/svg">
<path d="M695.95 10.8754C816.463 11.8797 934.565 32.2329 1054.58 41.0036C1175.09 49.7408 1293.59 33.0698 1413.24 19.78C1505.73 79.4338 1580.38 192.214 1688.14 213.672C1753.15 226.627 1772.63 292.942 1808.28 342.955C1849.26 400.4 1910.08 443.449 1963.07 489.579H-109.076C25.0952 409.795 159.266 330.011 293.437 250.227C359.887 210.491 423.457 174.706 479.596 120.542C506.544 94.5649 530.948 65.9096 564.49 48.1004C605.297 26.4416 652.097 24.567 695.95 10.8754Z" stroke="#2463EB" stroke-opacity="0.6" stroke-width="0.828264" stroke-miterlimit="10"/>
<path d="M47.1226 396.683H1856.39" stroke="#2463EB" stroke-opacity="0.6" stroke-width="0.828264" stroke-miterlimit="10"/>
<path d="M111.228 358.554C265.752 358.554 414.954 364.68 568.474 381.519C705.189 396.516 827.744 382.222 961.914 356.713C1091.87 331.974 1223.59 336.628 1355.36 331.439C1507.99 325.059 1660.9 330.925 1812.6 348.98" stroke="#2463EB" stroke-opacity="0.6" stroke-width="0.828264" stroke-miterlimit="10"/>
<path d="M168.137 324.744C240.512 324.744 313.489 320.827 384.96 334.184C457.703 347.775 527.533 373.217 599.573 389.72C744.121 422.828 840.833 376.062 970.92 317.48C1086.01 265.693 1200.33 269.375 1323.69 258.127C1484.84 243.431 1616.57 243.264 1773.77 287.787" stroke="#2463EB" stroke-opacity="0.6" stroke-width="0.828264" stroke-miterlimit="10"/>
<path d="M218.987 294.482C293.738 294.482 361.627 296.658 433.935 318.685C498.844 338.502 561.377 366.086 627.492 381.987C766.751 415.463 862.056 344.796 978.987 280.522C1085.51 221.94 1194.54 228.099 1312.1 214.776C1464.75 197.502 1590.99 187.091 1738.99 237.339" stroke="#2463EB" stroke-opacity="0.6" stroke-width="0.828264" stroke-miterlimit="10"/>
<path d="M264.681 267.333C399.622 268.036 520.604 318.35 652.431 337.13C776.827 354.805 874.208 298.365 986.218 254.244C1089.73 213.504 1192.29 216.684 1301.53 207.746C1440.65 196.297 1570.14 184.313 1707.79 216.115" stroke="#2463EB" stroke-opacity="0.6" stroke-width="0.828264" stroke-miterlimit="10"/>
<path d="M306.024 242.728C430.186 246.076 551.301 275.166 675.161 280.556C785.33 285.343 886.226 255.851 992.813 233.69C1091.73 213.27 1191.56 217.186 1292.02 212.768C1421.57 207.11 1550.29 198.708 1679.6 212.433" stroke="#2463EB" stroke-opacity="0.6" stroke-width="0.828264" stroke-miterlimit="10"/>
<path d="M343.491 220.065C563.694 222.944 778.676 230.108 998.712 216.717C1215.23 203.796 1437.24 207.043 1653.97 211.328" stroke="#2463EB" stroke-opacity="0.6" stroke-width="0.828264" stroke-miterlimit="10"/>
<path d="M377.67 200.247C795.314 200.047 1212.96 200.047 1630.6 200.247" stroke="#2463EB" stroke-opacity="0.6" stroke-width="0.828264" stroke-miterlimit="10"/>
<path d="M409.003 180.798C609.054 175.107 809.005 173.065 1009.12 170.387C1209.24 167.709 1408.96 181.602 1609.21 181.602" stroke="#2463EB" stroke-opacity="0.6" stroke-width="0.828264" stroke-miterlimit="10"/>
<path d="M437.792 158.939C629.574 143.573 821.39 138.853 1013.57 132.56C1207.73 126.199 1396.07 164.596 1589.36 164.395" stroke="#2463EB" stroke-opacity="0.6" stroke-width="0.828264" stroke-miterlimit="10"/>
<path d="M464.372 135.271C648.087 110.332 832.806 104.172 1017.89 94.0628C1208.5 83.6518 1382.78 145.582 1571.42 148.595" stroke="#2463EB" stroke-opacity="0.6" stroke-width="0.828264" stroke-miterlimit="10"/>
<path d="M488.943 111.303C664.457 79.1658 843.787 72.1694 1021.78 59.549C1106.44 53.5569 1185.01 54.5277 1268.23 74.5127C1364.13 97.5775 1455.46 127.806 1554.61 133.999" stroke="#2463EB" stroke-opacity="0.6" stroke-width="0.828264" stroke-miterlimit="10"/>
<path d="M511.741 88.6061C679.387 52.5527 854.499 46.3932 1025.39 32.0321C1104.56 25.3369 1176.6 25.1696 1253.7 45.8576C1349.71 71.6339 1439.39 108.658 1539.05 119.939" stroke="#2463EB" stroke-opacity="0.6" stroke-width="0.828264" stroke-miterlimit="10"/>
<path d="M532.964 68.8218C693.212 32.4671 864.809 27.1109 1028.77 12.9507C1100.34 6.75768 1169.37 5.11737 1239.67 23.6295C1336.28 49.138 1424.96 91.5519 1524.65 106.516" stroke="#2463EB" stroke-opacity="0.6" stroke-width="0.828264" stroke-miterlimit="10"/>
<path d="M552.748 53.7575C708.142 21.7212 873.546 17.5033 1031.89 4.64863C1205.96 -9.51163 1343.48 62.3608 1511.03 92.8572" stroke="#2463EB" stroke-opacity="0.6" stroke-width="0.828264" stroke-miterlimit="10"/>
<path d="M571.26 43.1792C722.637 16.9677 881.379 14.4571 1034.83 4.61519C1200.24 -5.86273 1338.29 51.0461 1498.37 80.2369" stroke="#2463EB" stroke-opacity="0.6" stroke-width="0.828264" stroke-miterlimit="10"/>
<path d="M588.6 36.0489C736.161 15.9634 888.71 15.9634 1037.58 9.60304C1194.38 2.90789 1333.24 44.7527 1486.55 69.3908" stroke="#2463EB" stroke-opacity="0.6" stroke-width="0.828264" stroke-miterlimit="10"/>
<path d="M604.903 31.3961C748.849 16.9011 895.607 19.8804 1040.09 17.1019C1188.89 14.2565 1328.31 41.7736 1475.27 60.2522" stroke="#2463EB" stroke-opacity="0.6" stroke-width="0.828264" stroke-miterlimit="10"/>
<path d="M620.201 28.383C901.866 9.40225 1184.6 29.0525 1464.96 52.653" stroke="#2463EB" stroke-opacity="0.6" stroke-width="0.828264" stroke-miterlimit="10"/>
<path d="M634.663 26.2741C906.787 15.5283 1183.13 35.2121 1455.09 46.3595" stroke="#2463EB" stroke-opacity="0.6" stroke-width="0.828264" stroke-miterlimit="10"/>
<path d="M648.287 24.4326C913.616 19.9468 1179.98 40.9028 1445.78 40.635" stroke="#2463EB" stroke-opacity="0.6" stroke-width="0.828264" stroke-miterlimit="10"/>
<path d="M661.176 22.3576C791.062 22.1902 919.542 36.317 1049.06 43.5143C1178.58 50.7116 1307.99 40.4679 1436.98 35.5135" stroke="#2463EB" stroke-opacity="0.6" stroke-width="0.828264" stroke-miterlimit="10"/>
<path d="M673.361 19.5792C800.067 20.4495 924.831 37.087 1051 45.322C1177.17 53.5571 1303.04 39.2294 1428.64 30.4588" stroke="#2463EB" stroke-opacity="0.6" stroke-width="0.828264" stroke-miterlimit="10"/>
<path d="M684.944 15.7961C808.57 17.0012 929.786 35.6471 1052.84 44.4178C1175.9 53.1885 1298.22 36.8189 1420.74 25.2362" stroke="#2463EB" stroke-opacity="0.6" stroke-width="0.828264" stroke-miterlimit="10"/>
<path d="M1385.62 22.5916C1439.18 54.9626 1476.67 91.8529 1519.29 137.447C1535.35 154.653 1552.46 176.045 1571.68 189.803C1601.13 210.893 1599.73 202.089 1634.51 205.269C1697.38 210.96 1708.86 268.002 1736.24 320.091C1772.36 388.85 1828.17 436.486 1883.54 489.579" stroke="#2463EB" stroke-opacity="0.6" stroke-width="0.828264" stroke-miterlimit="10"/>
<path d="M1358.03 25.7718C1408.42 53.1884 1436.9 77.1905 1471.38 124.023C1486.51 144.544 1501.71 169.985 1521.33 186.69C1550.08 211.161 1550.12 195.896 1580.85 201.185C1610.78 206.307 1601.17 188.531 1628.38 215.479C1654.36 241.222 1662.76 290.096 1677.66 322.601C1708.69 390.223 1753.38 435.582 1803.66 489.612" stroke="#2463EB" stroke-opacity="0.6" stroke-width="0.828264" stroke-miterlimit="10"/>
<path d="M1330.38 28.9855C1386.29 55.2305 1403.36 69.6586 1436.17 125.563C1449.22 150.671 1464.76 174.402 1482.56 196.398C1496.38 214.095 1511.24 215.356 1527.15 200.181C1543.73 183.822 1558.6 185.797 1571.74 206.106C1589.82 247.672 1605.36 290.299 1618.27 333.749C1642.54 396.114 1682.18 438.629 1724.06 489.579" stroke="#2463EB" stroke-opacity="0.6" stroke-width="0.828264" stroke-miterlimit="10"/>
<path d="M1302.87 32.1658C1319.54 38.0783 1336.72 42.4594 1354.18 45.2548C1374.61 70.0278 1390.2 98.4163 1400.15 128.944C1410.54 156.534 1424.88 182.47 1442.73 205.939C1454.82 211.696 1465.11 210.123 1473.59 201.218C1481.98 192.649 1492.26 190.551 1504.42 194.925C1524.89 231.718 1539.27 271.577 1547 312.961C1569.06 383.896 1601.87 429.959 1644.28 489.412" stroke="#2463EB" stroke-opacity="0.6" stroke-width="0.828264" stroke-miterlimit="10"/>
<path d="M1275.28 35.2122C1290.6 37.8262 1306.19 38.4899 1321.68 37.1873C1340.82 67.6375 1354.78 101.054 1362.99 136.075C1369.48 152.88 1375.95 169.684 1382.4 186.489C1389.37 212.333 1401.88 218.146 1419.93 203.93C1433.32 189.96 1442.68 191.466 1448.02 208.449C1466.94 232.28 1477.13 261.877 1476.87 292.306C1497.56 369.301 1523.97 422.393 1564.58 489.579" stroke="#2463EB" stroke-opacity="0.6" stroke-width="0.828264" stroke-miterlimit="10"/>
<path d="M1247.7 37.9906C1261.27 38.484 1274.63 34.5089 1285.73 26.6758C1307.42 73.3745 1309.16 143.038 1335.5 185.083C1379.32 254.78 1354.72 171.994 1381.57 200.449C1419.83 240.988 1413.27 320.526 1429.5 369.769C1443.23 411.446 1465.49 450.446 1484.87 489.579" stroke="#2463EB" stroke-opacity="0.6" stroke-width="0.828264" stroke-miterlimit="10"/>
<path d="M1220.11 40.3671C1232.37 35.6517 1243.29 28.0091 1251.92 18.1058C1262.73 54.9291 1268.65 173.969 1293.32 200.047C1308.76 216.45 1314.78 200.047 1325.53 212.098C1349.43 238.878 1352.78 329.598 1359 355.742C1369.88 401.939 1388.2 445.424 1405.27 489.646" stroke="#2463EB" stroke-opacity="0.6" stroke-width="0.828264" stroke-miterlimit="10"/>
<path d="M1192.53 42.2753C1201.17 32.2326 1209.27 22.1899 1217.13 11.4442C1225.77 62.8295 1217.8 146.285 1243.91 187.158C1239.59 203.316 1242.93 211.663 1253.96 212.198C1258.9 213.297 1263.93 213.947 1268.99 214.14C1286.46 249.49 1284.02 301.177 1289.71 339.038C1297.54 391.126 1311.44 439.064 1325.46 489.679" stroke="#2463EB" stroke-opacity="0.6" stroke-width="0.828264" stroke-miterlimit="10"/>
<path d="M1164.95 43.5811C1170.81 30.8775 1175.81 17.7922 1179.91 4.41446C1196.65 170.454 1217.7 323.305 1245.79 489.579" stroke="#2463EB" stroke-opacity="0.6" stroke-width="0.828264" stroke-miterlimit="10"/>
<path d="M1137.33 44.3512C1139.56 29.9566 1141.35 15.5062 1142.68 1C1148.51 164.496 1156.28 326.217 1166.12 489.746" stroke="#2463EB" stroke-opacity="0.6" stroke-width="0.828264" stroke-miterlimit="10"/>
<path d="M1109.74 43.8488C1107.94 29.6774 1106.5 15.4837 1105.43 1.26764C1100.67 164.261 1094.35 326.619 1086.41 489.579" stroke="#2463EB" stroke-opacity="0.6" stroke-width="0.828264" stroke-miterlimit="10"/>
<path d="M1082.16 42.6773C1076.54 29.8722 1071.87 16.6691 1068.2 3.17593C1052.73 166.538 1032.45 327.154 1006.71 489.579" stroke="#2463EB" stroke-opacity="0.6" stroke-width="0.828264" stroke-miterlimit="10"/>
<path d="M1054.58 41.0032C1045.72 30.0717 1037.81 18.4018 1030.94 6.1214C1004.57 168.942 969.877 330.306 927 489.579" stroke="#2463EB" stroke-opacity="0.6" stroke-width="0.828264" stroke-miterlimit="10"/>
<path d="M1026.99 38.593C1013.63 31.6127 1002.81 20.5873 996.094 7.09232C968.008 103.871 954.919 202.859 924.656 299.436C904.303 364.413 871.363 425.473 847.294 489.579" stroke="#2463EB" stroke-opacity="0.6" stroke-width="0.828264" stroke-miterlimit="10"/>
<path d="M999.415 35.8817C991.597 34.7805 984.148 31.8513 977.675 27.3319C971.201 22.8126 965.884 16.8305 962.156 9.87106C915.29 104.005 901.565 225.12 868.424 326.318C846.062 394.575 848.171 349.148 821.558 385.436C798.895 416.3 783.931 455.434 767.394 489.579" stroke="#2463EB" stroke-opacity="0.6" stroke-width="0.828264" stroke-miterlimit="10"/>
<path d="M971.831 32.8689C963.295 32.8599 954.853 31.1028 947.023 27.706C939.193 24.3091 932.141 19.3445 926.303 13.1182C867.319 112.474 852.288 243.498 811.515 351.659C778.742 438.696 799.464 369.702 754.137 386.842C732.445 395.043 697.563 473.176 687.855 489.579" stroke="#2463EB" stroke-opacity="0.6" stroke-width="0.828264" stroke-miterlimit="10"/>
<path d="M944.247 29.655C935.333 31.3494 926.149 30.9879 917.395 28.5979C908.642 26.2079 900.549 21.8524 893.732 15.863C867.42 37.8231 852.345 66.6123 848.506 102.231C825.743 167.91 798.293 230.61 776.232 296.591C767.573 328.393 757.441 359.737 745.836 390.624C732.825 411.357 718.866 412.216 703.958 393.202C681.641 381.195 666.554 389.341 658.699 417.639L608.217 489.579" stroke="#2463EB" stroke-opacity="0.6" stroke-width="0.828264" stroke-miterlimit="10"/>
<path d="M916.663 26.3742C907.502 29.2743 897.803 30.061 888.294 28.6753C878.786 27.2896 869.715 23.7675 861.763 18.3734C833.821 32.1431 817.351 55.4311 812.352 88.2374C782.224 159.005 747.409 227.697 722.57 300.407C715.302 336.651 700.311 370.904 678.617 400.834C670.438 401.868 662.134 401.169 654.244 398.781C646.353 396.393 639.054 392.371 632.822 386.975C587.897 391.26 555.158 456.672 528.511 489.511" stroke="#2463EB" stroke-opacity="0.6" stroke-width="0.828264" stroke-miterlimit="10"/>
<path d="M889.046 23.1609C860.056 36.1161 842.615 15.3276 816.671 27.0776C788.585 39.8318 777.471 78.4964 764.65 104.607C732.412 169.785 697.698 231.246 669.009 298.031C656.824 326.284 647.15 384.063 610.192 391.093C595.128 393.939 576.382 378.607 560.849 381.419C519.64 388.951 475.486 460.656 448.873 489.579" stroke="#2463EB" stroke-opacity="0.6" stroke-width="0.828264" stroke-miterlimit="10"/>
<path d="M861.461 20.0475C833.107 34.2412 811.883 17.8716 784.735 26.7427C748.213 38.727 732.713 85.5597 715.942 117.395C684.24 177.384 646.044 232.117 615.28 292.775C600.785 321.396 585.487 360.396 553.149 371.175C535.976 376.899 518.803 371.175 501.329 375.862C450.512 389.754 406.626 453.09 369.133 489.679" stroke="#2463EB" stroke-opacity="0.6" stroke-width="0.828264" stroke-miterlimit="10"/>
<path d="M833.869 17.2353C800.628 34.8101 770.701 13.4525 737.995 29.9896C711.817 43.3799 694.476 81.3079 680.584 104.875C644.062 166.839 601.648 224.116 561.644 283.803C516.921 350.554 491.345 339.774 428.612 372.279C377.226 398.826 332.469 451.718 289.419 489.445" stroke="#2463EB" stroke-opacity="0.6" stroke-width="0.828264" stroke-miterlimit="10"/>
<path d="M806.287 14.7917C772.811 30.9605 738.163 14.2226 706.161 28.6172C670.275 44.7525 652.064 88.0702 631.643 118.6C594.519 173.969 550.866 223.915 508.017 275.032C467.378 323.505 421.985 331.439 370.03 362.371C313.122 396.248 261.368 448.136 209.715 489.579" stroke="#2463EB" stroke-opacity="0.6" stroke-width="0.828264" stroke-miterlimit="10"/>
<path d="M778.702 12.85C744.858 23.3279 706.629 16.1976 674.693 29.0857C638.539 43.8486 619.123 81.9105 596.962 111.302C554.214 168.211 507.113 217.253 454.356 264.956C407.757 307.069 347.903 330 296.785 366.488C240.613 406.659 185.579 448.571 130.009 489.579" stroke="#2463EB" stroke-opacity="0.6" stroke-width="0.828264" stroke-miterlimit="10"/>
<path d="M751.252 11.4776C716.035 22.692 677.605 18.1728 643.694 31.2618C601.447 47.7654 574.7 93.2925 547.485 126.4C506.008 176.948 454.355 219.797 400.861 257.424C286.742 337.766 165.961 410.676 50.4697 489.579" stroke="#2463EB" stroke-opacity="0.6" stroke-width="0.828264" stroke-miterlimit="10"/>
<path d="M723.534 10.8754C687.346 22.3911 647.677 20.9181 612.695 34.5762C569.679 51.4815 543.3 89.8782 513.239 122.584C464.531 175.543 407.623 213.538 347.065 251.734C221.508 330.893 96.0301 410.174 -29.3701 489.579" stroke="#2463EB" stroke-opacity="0.6" stroke-width="0.828264" stroke-miterlimit="10"/>
</svg>
