<svg width="199" height="30" viewBox="0 0 199 30" fill="none" xmlns="http://www.w3.org/2000/svg">
<path d="M49.6138 19.2889H58.632L54.2684 8.52524H53.9775L49.6138 19.2889ZM57.4684 6.05252L65.7593 26.4162H61.5702L59.6502 21.4707H48.5956L46.6756 26.4162H42.4866L50.7775 6.05252H57.4684Z" fill="#1E344F"/>
<path d="M67.5275 11.2889H71.6002V20.4525C71.6002 21.8489 71.9493 22.8574 72.6475 23.478C73.3456 24.0792 74.3541 24.3798 75.6729 24.3798H79.4547V11.2889H83.5275V26.4162H75.6729C72.8996 26.4162 70.8438 25.9216 69.5056 24.9325C68.1869 23.924 67.5275 22.4307 67.5275 20.4525V11.2889Z" fill="#1E344F"/>
<path d="M88.9218 13.3252H86.1581V11.2889H88.9218V6.63434H92.9945V11.2889H97.5036V13.3252H92.9945V20.8889C92.9945 21.6258 93.0721 22.2562 93.2272 22.7798C93.4018 23.284 93.6248 23.701 93.8963 24.0307C94.1872 24.341 94.5169 24.5737 94.8854 24.7289C95.2539 24.884 95.6418 24.9616 96.0491 24.9616C96.6309 24.9616 97.1933 24.8743 97.7363 24.6998C98.2794 24.5058 98.7351 24.3022 99.1036 24.0889L99.9763 25.9798C99.3945 26.2707 98.7254 26.5131 97.9691 26.7071C97.2321 26.901 96.4951 26.998 95.7581 26.998C93.5666 26.998 91.8794 26.4549 90.6963 25.3689C89.5133 24.2828 88.9218 22.7895 88.9218 20.8889V13.3252Z" fill="#1E344F"/>
<path d="M109.565 25.1071C110.186 25.1071 110.767 24.9907 111.31 24.758C111.853 24.5252 112.329 24.1665 112.736 23.6816C113.143 23.1774 113.463 22.5277 113.696 21.7325C113.948 20.9374 114.074 19.9774 114.074 18.8525C114.074 17.7277 113.948 16.7677 113.696 15.9725C113.463 15.1774 113.143 14.5374 112.736 14.0525C112.329 13.5483 111.853 13.1798 111.31 12.9471C110.767 12.7143 110.186 12.598 109.565 12.598C108.944 12.598 108.363 12.7143 107.82 12.9471C107.276 13.1798 106.801 13.5483 106.394 14.0525C105.987 14.5374 105.657 15.1774 105.405 15.9725C105.172 16.7677 105.056 17.7277 105.056 18.8525C105.056 19.9774 105.172 20.9374 105.405 21.7325C105.657 22.5277 105.987 23.1774 106.394 23.6816C106.801 24.1665 107.276 24.5252 107.82 24.758C108.363 24.9907 108.944 25.1071 109.565 25.1071ZM109.565 10.7071C110.864 10.7071 112.057 10.8913 113.143 11.2598C114.249 11.6089 115.189 12.1325 115.965 12.8307C116.741 13.5095 117.342 14.3628 117.769 15.3907C118.215 16.3992 118.438 17.5531 118.438 18.8525C118.438 20.1713 118.215 21.3349 117.769 22.3434C117.342 23.3519 116.741 24.2052 115.965 24.9034C115.189 25.5822 114.249 26.0962 113.143 26.4452C112.057 26.8137 110.864 26.998 109.565 26.998C108.246 26.998 107.044 26.8137 105.958 26.4452C104.872 26.0962 103.941 25.5822 103.165 24.9034C102.389 24.2052 101.778 23.3519 101.332 22.3434C100.906 21.3349 100.692 20.1713 100.692 18.8525C100.692 17.5531 100.906 16.3992 101.332 15.3907C101.778 14.3628 102.389 13.5095 103.165 12.8307C103.941 12.1325 104.872 11.6089 105.958 11.2598C107.044 10.8913 108.246 10.7071 109.565 10.7071Z" fill="#1E344F"/>
<path d="M121.789 6.05252H131.68C133.173 6.05252 134.463 6.18827 135.549 6.45979C136.654 6.71191 137.566 7.0804 138.283 7.56524C139.001 8.0307 139.534 8.59312 139.883 9.25252C140.232 9.91191 140.407 10.6392 140.407 11.4343C140.407 12.4622 140.116 13.3543 139.534 14.1107C138.952 14.8671 138.08 15.4295 136.916 15.798C138.371 16.0889 139.505 16.661 140.32 17.5143C141.154 18.3483 141.571 19.4246 141.571 20.7434C141.571 22.4889 140.843 23.8755 139.389 24.9034C137.954 25.9119 135.675 26.4162 132.552 26.4162H121.789V6.05252ZM126.007 17.1071V24.2343H132.552C134.007 24.2343 135.122 23.9434 135.898 23.3616C136.674 22.7798 137.062 21.9071 137.062 20.7434C137.062 19.5022 136.674 18.5907 135.898 18.0089C135.122 17.4077 134.007 17.1071 132.552 17.1071H126.007ZM131.68 14.9252C134.492 14.9252 135.898 13.7616 135.898 11.4343C135.898 10.4065 135.539 9.621 134.822 9.07797C134.123 8.51555 133.076 8.23433 131.68 8.23433H126.007V14.9252H131.68Z" fill="#1E344F"/>
<path d="M156.547 13.3252H153.056C151.737 13.3252 150.729 13.684 150.03 14.4016C149.332 15.0998 148.983 16.1471 148.983 17.5434V26.4162H144.91V17.5434C144.91 15.5652 145.531 14.0331 146.772 12.9471C148.033 11.8416 149.836 11.2889 152.183 11.2889H156.547V13.3252Z" fill="#1E344F"/>
<path d="M163.081 26.4162H159.008V11.5798H163.081V26.4162ZM163.226 7.65252C163.226 8.23433 163.023 8.74827 162.615 9.19433C162.228 9.621 161.704 9.83433 161.045 9.83433C160.385 9.83433 159.852 9.621 159.445 9.19433C159.057 8.74827 158.863 8.23433 158.863 7.65252C158.863 7.0707 159.057 6.56646 159.445 6.13979C159.852 5.69373 160.385 5.4707 161.045 5.4707C161.685 5.4707 162.208 5.69373 162.615 6.13979C163.023 6.56646 163.226 7.0707 163.226 7.65252Z" fill="#1E344F"/>
<path d="M176.027 24.9616C176.978 24.9616 177.86 24.7968 178.675 24.4671C179.509 24.1374 180.323 23.6719 181.118 23.0707L182.282 24.8162C181.914 25.1458 181.477 25.4465 180.973 25.718C180.488 25.9895 179.955 26.2222 179.373 26.4162C178.81 26.5907 178.219 26.7265 177.598 26.8234C176.978 26.9398 176.357 26.998 175.737 26.998C174.36 26.998 173.099 26.8137 171.955 26.4452C170.83 26.0962 169.87 25.5822 169.075 24.9034C168.28 24.2052 167.659 23.3519 167.213 22.3434C166.786 21.3349 166.573 20.1713 166.573 18.8525C166.573 17.5531 166.777 16.3992 167.184 15.3907C167.61 14.3628 168.192 13.5095 168.929 12.8307C169.686 12.1325 170.578 11.6089 171.606 11.2598C172.634 10.8913 173.768 10.7071 175.009 10.7071C176.173 10.7071 177.269 10.8816 178.297 11.2307C179.324 11.5798 180.217 12.0937 180.973 12.7725C181.729 13.4319 182.33 14.2368 182.777 15.1871C183.223 16.1374 183.446 17.2137 183.446 18.4162V20.4525H171.024C171.257 22.0622 171.809 23.2162 172.682 23.9143C173.574 24.6125 174.689 24.9616 176.027 24.9616ZM175.009 12.598C174.447 12.598 173.923 12.7046 173.438 12.918C172.954 13.1313 172.527 13.4707 172.158 13.9362C171.809 14.4016 171.518 15.0028 171.286 15.7398C171.072 16.4768 170.956 17.3689 170.937 18.4162H179.082C179.082 17.4077 178.966 16.5349 178.733 15.798C178.5 15.061 178.19 14.4598 177.802 13.9943C177.434 13.5095 176.997 13.1604 176.493 12.9471C176.008 12.7143 175.514 12.598 175.009 12.598Z" fill="#1E344F"/>
<path d="M187.53 11.5798C187.53 9.67918 188.121 8.18585 189.304 7.09979C190.487 6.01373 192.175 5.4707 194.366 5.4707C195.103 5.4707 195.84 5.56767 196.577 5.76161C197.333 5.95555 198.002 6.19797 198.584 6.48888L197.712 8.37979C197.343 8.16646 196.887 7.97252 196.344 7.79797C195.801 7.60403 195.239 7.50706 194.657 7.50706C194.25 7.50706 193.862 7.58464 193.493 7.73979C193.125 7.89494 192.795 8.13736 192.504 8.46706C192.233 8.77736 192.01 9.19433 191.835 9.71797C191.68 10.2416 191.602 10.8622 191.602 11.5798V11.8707H196.112V13.9071H191.602V26.4162H187.53V13.9071H184.766V11.8707H187.53V11.5798Z" fill="#1E344F"/>
<path d="M25.6049 28.7617C27.8512 28.7617 29.6723 26.9889 29.6723 24.8021C29.6723 22.6153 27.8512 20.8426 25.6049 20.8426C23.3585 20.8426 21.5375 22.6153 21.5375 24.8021C21.5375 26.9889 23.3585 28.7617 25.6049 28.7617Z" fill="#2463EB"/>
<path fill-rule="evenodd" clip-rule="evenodd" d="M13.3675 2.06196C5.55061 1.32507 -1.28724 7.24962 0.206491 15.0606C1.62957 22.4982 5.15699 28.7617 12.9284 28.7617C17.1775 28.7617 18.7873 23.2351 21.371 20.3416C23.5157 17.9394 26.8766 16.7505 27.3459 14.0879C28.6984 6.39484 20.8613 2.76445 13.3675 2.06196ZM12.3077 21.0294C8.50779 21.0294 5.4295 18.0327 5.4295 14.3335C5.4295 10.6344 8.50779 7.63772 12.3077 7.63772C16.1076 7.63772 19.1859 10.6344 19.1859 14.3335C19.1859 18.0327 16.1076 21.0294 12.3077 21.0294Z" fill="#1E344F"/>
</svg>
