<svg width="1400" height="563" viewBox="0 0 1400 563" fill="none" xmlns="http://www.w3.org/2000/svg">
<path d="M1400 292.8C1400 310.722 1400 319.683 1396.51 326.528C1393.44 332.549 1388.55 337.444 1382.53 340.512C1375.68 344 1366.72 344 1348.8 344H1026.2C1008.28 344 999.318 344 992.472 347.488C986.451 350.556 981.556 355.451 978.488 361.472C975 368.317 975 377.278 975 395.2V450.8C975 468.722 975 477.683 971.512 484.528C968.444 490.549 963.549 495.444 957.528 498.512C950.682 502 941.722 502 923.8 502H51.2C33.2783 502 24.3175 502 17.4723 498.512C11.4511 495.444 6.55574 490.549 3.48779 484.528C0 477.683 0 468.722 0 450.8V254.2C0 236.278 0 227.317 3.48779 220.472C6.55574 214.451 11.4511 209.556 17.4723 206.488C24.3175 203 33.2783 203 51.2 203H1045.8C1063.72 203 1072.68 203 1079.53 199.512C1085.55 196.444 1090.44 191.549 1093.51 185.528C1097 178.683 1097 169.722 1097 151.8V51.2C1097 33.2783 1097 24.3175 1100.49 17.4723C1103.56 11.4511 1108.45 6.55574 1114.47 3.48779C1121.32 0 1130.28 0 1148.2 0H1348.8C1366.72 0 1375.68 0 1382.53 3.48779C1388.55 6.55574 1393.44 11.4511 1396.51 17.4723C1400 24.3175 1400 33.2783 1400 51.2V292.8Z" fill="#C1D1F7"/>
<g clip-path="url(#paint0_diamond_389_963_clip_path)" data-figma-skip-parse="true"><g transform="matrix(0.124 0.2165 -0.603785 0.345817 576 285.5)"><rect x="0" y="0" width="2399.89" height="1233.51" fill="url(#paint0_diamond_389_963)" opacity="0.2" shape-rendering="crispEdges"/><rect x="0" y="0" width="2399.89" height="1233.51" transform="scale(1 -1)" fill="url(#paint0_diamond_389_963)" opacity="0.2" shape-rendering="crispEdges"/><rect x="0" y="0" width="2399.89" height="1233.51" transform="scale(-1 1)" fill="url(#paint0_diamond_389_963)" opacity="0.2" shape-rendering="crispEdges"/><rect x="0" y="0" width="2399.89" height="1233.51" transform="scale(-1)" fill="url(#paint0_diamond_389_963)" opacity="0.2" shape-rendering="crispEdges"/></g></g><path d="M1400 292.8C1400 310.722 1400 319.683 1396.51 326.528C1393.44 332.549 1388.55 337.444 1382.53 340.512C1375.68 344 1366.72 344 1348.8 344H1026.2C1008.28 344 999.318 344 992.472 347.488C986.451 350.556 981.556 355.451 978.488 361.472C975 368.317 975 377.278 975 395.2V450.8C975 468.722 975 477.683 971.512 484.528C968.444 490.549 963.549 495.444 957.528 498.512C950.682 502 941.722 502 923.8 502H51.2C33.2783 502 24.3175 502 17.4723 498.512C11.4511 495.444 6.55574 490.549 3.48779 484.528C0 477.683 0 468.722 0 450.8V254.2C0 236.278 0 227.317 3.48779 220.472C6.55574 214.451 11.4511 209.556 17.4723 206.488C24.3175 203 33.2783 203 51.2 203H1045.8C1063.72 203 1072.68 203 1079.53 199.512C1085.55 196.444 1090.44 191.549 1093.51 185.528C1097 178.683 1097 169.722 1097 151.8V51.2C1097 33.2783 1097 24.3175 1100.49 17.4723C1103.56 11.4511 1108.45 6.55574 1114.47 3.48779C1121.32 0 1130.28 0 1148.2 0H1348.8C1366.72 0 1375.68 0 1382.53 3.48779C1388.55 6.55574 1393.44 11.4511 1396.51 17.4723C1400 24.3175 1400 33.2783 1400 51.2V292.8Z" data-figma-gradient-fill="{&#34;type&#34;:&#34;GRADIENT_DIAMOND&#34;,&#34;stops&#34;:[{&#34;color&#34;:{&#34;r&#34;:0.13725490868091583,&#34;g&#34;:0.26666668057441711,&#34;b&#34;:0.70980393886566162,&#34;a&#34;:1.0},&#34;position&#34;:0.0},{&#34;color&#34;:{&#34;r&#34;:0.13725490868091583,&#34;g&#34;:0.26666668057441711,&#34;b&#34;:0.70980393886566162,&#34;a&#34;:0.0},&#34;position&#34;:1.0}],&#34;stopsVar&#34;:[{&#34;color&#34;:{&#34;r&#34;:0.13725490868091583,&#34;g&#34;:0.26666668057441711,&#34;b&#34;:0.70980393886566162,&#34;a&#34;:1.0},&#34;position&#34;:0.0},{&#34;color&#34;:{&#34;r&#34;:0.13725490868091583,&#34;g&#34;:0.26666668057441711,&#34;b&#34;:0.70980393886566162,&#34;a&#34;:0.0},&#34;position&#34;:1.0}],&#34;transform&#34;:{&#34;m00&#34;:248.00009155273438,&#34;m01&#34;:-1207.5697021484375,&#34;m02&#34;:1055.7847900390625,&#34;m10&#34;:432.99996948242188,&#34;m11&#34;:691.63366699218750,&#34;m12&#34;:-276.81683349609375},&#34;opacity&#34;:0.20000000298023224,&#34;blendMode&#34;:&#34;NORMAL&#34;,&#34;visible&#34;:true}"/>
<path d="M1400 292.8C1400 310.722 1400 319.683 1396.51 326.528C1393.44 332.549 1388.55 337.444 1382.53 340.512C1375.68 344 1366.72 344 1348.8 344H1026.2C1008.28 344 999.318 344 992.472 347.488C986.451 350.556 981.556 355.451 978.488 361.472C975 368.317 975 377.278 975 395.2V450.8C975 468.722 975 477.683 971.512 484.528C968.444 490.549 963.549 495.444 957.528 498.512C950.682 502 941.722 502 923.8 502H51.2C33.2783 502 24.3175 502 17.4723 498.512C11.4511 495.444 6.55574 490.549 3.48779 484.528C0 477.683 0 468.722 0 450.8V254.2C0 236.278 0 227.317 3.48779 220.472C6.55574 214.451 11.4511 209.556 17.4723 206.488C24.3175 203 33.2783 203 51.2 203H1045.8C1063.72 203 1072.68 203 1079.53 199.512C1085.55 196.444 1090.44 191.549 1093.51 185.528C1097 178.683 1097 169.722 1097 151.8V51.2C1097 33.2783 1097 24.3175 1100.49 17.4723C1103.56 11.4511 1108.45 6.55574 1114.47 3.48779C1121.32 0 1130.28 0 1148.2 0H1348.8C1366.72 0 1375.68 0 1382.53 3.48779C1388.55 6.55574 1393.44 11.4511 1396.51 17.4723C1400 24.3175 1400 33.2783 1400 51.2V292.8Z" fill="url(#paint1_linear_389_963)" fill-opacity="0.2"/>
<g filter="url(#filter0_d_389_963)">
<path d="M125 406C125 399.373 130.373 394 137 394H364C370.628 394 376 399.373 376 406V444C376 450.627 370.628 456 364 456H137C130.373 456 125 450.627 125 444V406Z" fill="white" shape-rendering="crispEdges"/>
<path d="M161.422 441.458C170.491 441.458 177.843 434.105 177.843 425.036C177.843 415.967 170.491 408.615 161.422 408.615C152.353 408.615 145 415.967 145 425.036C145 434.105 152.353 441.458 161.422 441.458Z" fill="#2463EB"/>
<path d="M158.465 429.072L168.193 419.794C168.423 419.575 168.691 419.466 168.997 419.466C169.303 419.466 169.571 419.575 169.8 419.794C170.03 420.013 170.145 420.273 170.145 420.575C170.145 420.876 170.03 421.136 169.8 421.354L159.268 431.426C159.039 431.645 158.771 431.754 158.465 431.754C158.159 431.754 157.891 431.645 157.661 431.426L152.725 426.718C152.496 426.499 152.385 426.24 152.395 425.939C152.404 425.638 152.524 425.378 152.754 425.158C152.984 424.939 153.257 424.829 153.572 424.83C153.888 424.831 154.16 424.94 154.39 425.158L158.465 429.072Z" fill="white"/>
<path d="M245.465 408.579H200.523C197.659 408.579 195.337 410.9 195.337 413.764C195.337 416.628 197.659 418.95 200.523 418.95H245.465C248.329 418.95 250.651 416.628 250.651 413.764C250.651 410.9 248.329 408.579 245.465 408.579Z" fill="#B4DAFF"/>
<path d="M276.58 431.05H200.523C197.659 431.05 195.337 433.372 195.337 436.236C195.337 439.1 197.659 441.421 200.523 441.421H276.58C279.444 441.421 281.765 439.1 281.765 436.236C281.765 433.372 279.444 431.05 276.58 431.05Z" fill="#DEE9FC"/>
</g>
<g filter="url(#filter1_d_389_963)">
<path d="M178 483C178 476.373 183.373 471 190 471H417C423.628 471 429 476.373 429 483V521C429 527.627 423.628 533 417 533H190C183.373 533 178 527.627 178 521V483Z" fill="white" shape-rendering="crispEdges"/>
<path d="M214.422 518.458C223.491 518.458 230.843 511.105 230.843 502.036C230.843 492.967 223.491 485.615 214.422 485.615C205.353 485.615 198 492.967 198 502.036C198 511.105 205.353 518.458 214.422 518.458Z" fill="#2463EB"/>
<path d="M211.465 506.072L221.193 496.794C221.423 496.575 221.691 496.466 221.997 496.466C222.303 496.466 222.571 496.575 222.8 496.794C223.03 497.013 223.145 497.273 223.145 497.575C223.145 497.876 223.03 498.136 222.8 498.354L212.268 508.426C212.039 508.645 211.771 508.754 211.465 508.754C211.159 508.754 210.891 508.645 210.661 508.426L205.725 503.718C205.496 503.499 205.385 503.24 205.395 502.939C205.404 502.638 205.524 502.378 205.754 502.158C205.984 501.939 206.257 501.829 206.572 501.83C206.888 501.831 207.16 501.94 207.39 502.158L211.465 506.072Z" fill="white"/>
<path d="M298.465 485.579H253.523C250.659 485.579 248.337 487.9 248.337 490.764C248.337 493.628 250.659 495.95 253.523 495.95H298.465C301.329 495.95 303.651 493.628 303.651 490.764C303.651 487.9 301.329 485.579 298.465 485.579Z" fill="#B4DAFF"/>
<path d="M329.58 508.05H253.523C250.659 508.05 248.337 510.372 248.337 513.236C248.337 516.1 250.659 518.421 253.523 518.421H329.58C332.444 518.421 334.765 516.1 334.765 513.236C334.765 510.372 332.444 508.05 329.58 508.05Z" fill="#DEE9FC"/>
</g>
<g filter="url(#filter2_d_389_963)">
<path d="M1178 66.0126C1178 59.9305 1182.93 55 1189.01 55H1311.99C1318.07 55 1323 59.9305 1323 66.0126V92.7561C1323 98.8382 1318.07 103.769 1311.99 103.769H1189.01C1182.93 103.769 1178 98.8382 1178 92.7561V66.0126Z" fill="#677CC4" shape-rendering="crispEdges"/>
<path d="M1228.77 68.7659H1199.71C1197.86 68.7659 1196.35 70.2672 1196.35 72.1191C1196.35 73.971 1197.86 75.4723 1199.71 75.4723H1228.77C1230.62 75.4723 1232.12 73.971 1232.12 72.1191C1232.12 70.2672 1230.62 68.7659 1228.77 68.7659Z" fill="#B4DAFF"/>
<path d="M1248.89 83.2964H1199.71C1197.86 83.2964 1196.35 84.7977 1196.35 86.6496C1196.35 88.5016 1197.86 90.0029 1199.71 90.0029H1248.89C1250.74 90.0029 1252.24 88.5016 1252.24 86.6496C1252.24 84.7977 1250.74 83.2964 1248.89 83.2964Z" fill="#DEE9FC"/>
</g>
<g filter="url(#filter3_d_389_963)">
<path d="M1178 123.959C1178 117.877 1182.93 112.946 1189.01 112.946H1311.99C1318.07 112.946 1323 117.877 1323 123.959V246.933C1323 253.015 1318.07 257.946 1311.99 257.946H1189.01C1182.93 257.946 1178 253.015 1178 246.933V123.959Z" fill="white" shape-rendering="crispEdges"/>
<path d="M1228.77 131.301H1199.71C1197.86 131.301 1196.35 132.802 1196.35 134.654C1196.35 136.506 1197.86 138.007 1199.71 138.007H1228.77C1230.62 138.007 1232.12 136.506 1232.12 134.654C1232.12 132.802 1230.62 131.301 1228.77 131.301Z" fill="#B4DAFF"/>
<path d="M1248.89 145.831H1199.71C1197.86 145.831 1196.35 147.332 1196.35 149.184C1196.35 151.036 1197.86 152.538 1199.71 152.538H1248.89C1250.74 152.538 1252.24 151.036 1252.24 149.184C1252.24 147.332 1250.74 145.831 1248.89 145.831Z" fill="#DEE9FC"/>
<path d="M1228.77 168.139H1199.71C1197.86 168.139 1196.35 169.64 1196.35 171.492C1196.35 173.344 1197.86 174.845 1199.71 174.845H1228.77C1230.62 174.845 1232.12 173.344 1232.12 171.492C1232.12 169.64 1230.62 168.139 1228.77 168.139Z" fill="#B4DAFF"/>
<path d="M1248.89 182.669H1199.71C1197.86 182.669 1196.35 184.171 1196.35 186.023C1196.35 187.875 1197.86 189.376 1199.71 189.376H1248.89C1250.74 189.376 1252.24 187.875 1252.24 186.023C1252.24 184.171 1250.74 182.669 1248.89 182.669Z" fill="#DEE9FC"/>
<path d="M1228.77 204.977H1199.71C1197.86 204.977 1196.35 206.478 1196.35 208.33C1196.35 210.182 1197.86 211.684 1199.71 211.684H1228.77C1230.62 211.684 1232.12 210.182 1232.12 208.33C1232.12 206.478 1230.62 204.977 1228.77 204.977Z" fill="#B4DAFF"/>
<path d="M1248.89 219.508H1199.71C1197.86 219.508 1196.35 221.009 1196.35 222.861C1196.35 224.713 1197.86 226.214 1199.71 226.214H1248.89C1250.74 226.214 1252.24 224.713 1252.24 222.861C1252.24 221.009 1250.74 219.508 1248.89 219.508Z" fill="#DEE9FC"/>
</g>
<defs>
<clipPath id="paint0_diamond_389_963_clip_path"><path d="M1400 292.8C1400 310.722 1400 319.683 1396.51 326.528C1393.44 332.549 1388.55 337.444 1382.53 340.512C1375.68 344 1366.72 344 1348.8 344H1026.2C1008.28 344 999.318 344 992.472 347.488C986.451 350.556 981.556 355.451 978.488 361.472C975 368.317 975 377.278 975 395.2V450.8C975 468.722 975 477.683 971.512 484.528C968.444 490.549 963.549 495.444 957.528 498.512C950.682 502 941.722 502 923.8 502H51.2C33.2783 502 24.3175 502 17.4723 498.512C11.4511 495.444 6.55574 490.549 3.48779 484.528C0 477.683 0 468.722 0 450.8V254.2C0 236.278 0 227.317 3.48779 220.472C6.55574 214.451 11.4511 209.556 17.4723 206.488C24.3175 203 33.2783 203 51.2 203H1045.8C1063.72 203 1072.68 203 1079.53 199.512C1085.55 196.444 1090.44 191.549 1093.51 185.528C1097 178.683 1097 169.722 1097 151.8V51.2C1097 33.2783 1097 24.3175 1100.49 17.4723C1103.56 11.4511 1108.45 6.55574 1114.47 3.48779C1121.32 0 1130.28 0 1148.2 0H1348.8C1366.72 0 1375.68 0 1382.53 3.48779C1388.55 6.55574 1393.44 11.4511 1396.51 17.4723C1400 24.3175 1400 33.2783 1400 51.2V292.8Z"/></clipPath><filter id="filter0_d_389_963" x="117.563" y="386.563" width="288.187" height="99.1873" filterUnits="userSpaceOnUse" color-interpolation-filters="sRGB">
<feFlood flood-opacity="0" result="BackgroundImageFix"/>
<feColorMatrix in="SourceAlpha" type="matrix" values="0 0 0 0 0 0 0 0 0 0 0 0 0 0 0 0 0 0 127 0" result="hardAlpha"/>
<feOffset dx="11.1562" dy="11.1562"/>
<feGaussianBlur stdDeviation="9.29683"/>
<feComposite in2="hardAlpha" operator="out"/>
<feColorMatrix type="matrix" values="0 0 0 0 0 0 0 0 0 0 0 0 0 0 0 0 0 0 0.1 0"/>
<feBlend mode="normal" in2="BackgroundImageFix" result="effect1_dropShadow_389_963"/>
<feBlend mode="normal" in="SourceGraphic" in2="effect1_dropShadow_389_963" result="shape"/>
</filter>
<filter id="filter1_d_389_963" x="170.563" y="463.563" width="288.187" height="99.1873" filterUnits="userSpaceOnUse" color-interpolation-filters="sRGB">
<feFlood flood-opacity="0" result="BackgroundImageFix"/>
<feColorMatrix in="SourceAlpha" type="matrix" values="0 0 0 0 0 0 0 0 0 0 0 0 0 0 0 0 0 0 127 0" result="hardAlpha"/>
<feOffset dx="11.1562" dy="11.1562"/>
<feGaussianBlur stdDeviation="9.29683"/>
<feComposite in2="hardAlpha" operator="out"/>
<feColorMatrix type="matrix" values="0 0 0 0 0 0 0 0 0 0 0 0 0 0 0 0 0 0 0.1 0"/>
<feBlend mode="normal" in2="BackgroundImageFix" result="effect1_dropShadow_389_963"/>
<feBlend mode="normal" in="SourceGraphic" in2="effect1_dropShadow_389_963" result="shape"/>
</filter>
<filter id="filter2_d_389_963" x="1171.17" y="48.1745" width="179.127" height="82.8963" filterUnits="userSpaceOnUse" color-interpolation-filters="sRGB">
<feFlood flood-opacity="0" result="BackgroundImageFix"/>
<feColorMatrix in="SourceAlpha" type="matrix" values="0 0 0 0 0 0 0 0 0 0 0 0 0 0 0 0 0 0 127 0" result="hardAlpha"/>
<feOffset dx="10.2382" dy="10.2382"/>
<feGaussianBlur stdDeviation="8.53187"/>
<feComposite in2="hardAlpha" operator="out"/>
<feColorMatrix type="matrix" values="0 0 0 0 0 0 0 0 0 0 0 0 0 0 0 0 0 0 0.1 0"/>
<feBlend mode="normal" in2="BackgroundImageFix" result="effect1_dropShadow_389_963"/>
<feBlend mode="normal" in="SourceGraphic" in2="effect1_dropShadow_389_963" result="shape"/>
</filter>
<filter id="filter3_d_389_963" x="1171.17" y="106.121" width="179.127" height="179.127" filterUnits="userSpaceOnUse" color-interpolation-filters="sRGB">
<feFlood flood-opacity="0" result="BackgroundImageFix"/>
<feColorMatrix in="SourceAlpha" type="matrix" values="0 0 0 0 0 0 0 0 0 0 0 0 0 0 0 0 0 0 127 0" result="hardAlpha"/>
<feOffset dx="10.2382" dy="10.2382"/>
<feGaussianBlur stdDeviation="8.53187"/>
<feComposite in2="hardAlpha" operator="out"/>
<feColorMatrix type="matrix" values="0 0 0 0 0 0 0 0 0 0 0 0 0 0 0 0 0 0 0.1 0"/>
<feBlend mode="normal" in2="BackgroundImageFix" result="effect1_dropShadow_389_963"/>
<feBlend mode="normal" in="SourceGraphic" in2="effect1_dropShadow_389_963" result="shape"/>
</filter>
<linearGradient id="paint0_diamond_389_963" x1="0" y1="0" x2="500" y2="500" gradientUnits="userSpaceOnUse">
<stop stop-color="#2344B5"/>
<stop offset="1" stop-color="#2344B5" stop-opacity="0"/>
</linearGradient>
<linearGradient id="paint1_linear_389_963" x1="838.5" y1="251" x2="1342" y2="315.5" gradientUnits="userSpaceOnUse">
<stop stop-color="#2344B5" stop-opacity="0"/>
<stop offset="1" stop-color="#2344B5"/>
</linearGradient>
</defs>
</svg>
